<?xml version="1.0" encoding="UTF-8" standalone="no"?>
<svg
   version="1.1"
   width="640px"
   height="205px"
   style="shape-rendering:geometricPrecision; text-rendering:geometricPrecision; image-rendering:optimizeQuality; fill-rule:evenodd; clip-rule:evenodd"
   id="svg56"
   sodipodi:docname="logo-pba-mobile.svg"
   inkscape:version="1.4.2 (ebf0e940d0, 2025-05-08)"
   xmlns:inkscape="http://www.inkscape.org/namespaces/inkscape"
   xmlns:sodipodi="http://sodipodi.sourceforge.net/DTD/sodipodi-0.dtd"
   xmlns="http://www.w3.org/2000/svg"
   xmlns:svg="http://www.w3.org/2000/svg">
  <defs
     id="defs56" />
  <sodipodi:namedview
     id="namedview56"
     pagecolor="#ffffff"
     bordercolor="#000000"
     borderopacity="0.25"
     inkscape:showpageshadow="2"
     inkscape:pageopacity="0.0"
     inkscape:pagecheckerboard="0"
     inkscape:deskcolor="#d1d1d1"
     inkscape:zoom="1.8140625"
     inkscape:cx="320"
     inkscape:cy="102.25668"
     inkscape:window-width="1920"
     inkscape:window-height="1008"
     inkscape:window-x="0"
     inkscape:window-y="0"
     inkscape:window-maximized="1"
     inkscape:current-layer="svg56" />
  <g
     id="g2">
    <path
       style="opacity:1"
       fill="#cf8fab"
       d="M 273.5,51.5 C 271.195,50.2129 268.862,48.8796 266.5,47.5C 266.957,46.7025 267.624,46.3691 268.5,46.5C 268.56,47.0431 268.893,47.3764 269.5,47.5C 269.627,42.7035 271.793,39.3702 276,37.5C 276.945,37.9054 277.612,38.572 278,39.5C 280.003,37.1993 281.837,37.1993 283.5,39.5C 285.169,38.1103 286.836,37.7769 288.5,38.5C 286.51,39.4981 284.51,40.4981 282.5,41.5C 281.212,39.5255 279.545,39.5255 277.5,41.5C 276.742,40.1886 275.742,39.6886 274.5,40C 272.23,43.6096 271.896,47.4429 273.5,51.5 Z"
       id="path2" />
  </g>
  <g
     id="g3">
    <path
       style="opacity:1"
       fill="#a38ca8"
       d="M 300.5,47.5 C 299.167,48.1667 297.833,48.8333 296.5,49.5C 296.5,51.1667 296.5,52.8333 296.5,54.5C 295.517,50.7016 295.183,46.7016 295.5,42.5C 292.5,42.5 289.5,42.5 286.5,42.5C 286.666,47.1785 286.499,51.8452 286,56.5C 285.503,54.1902 285.337,51.8568 285.5,49.5C 283.5,49.5 281.5,49.5 279.5,49.5C 279.768,51.099 279.434,52.4324 278.5,53.5C 277.735,48.0936 280.069,46.0936 285.5,47.5C 285.244,45.2075 285.577,43.0408 286.5,41C 289.817,40.5017 293.15,40.335 296.5,40.5C 296.5,42.8333 296.5,45.1667 296.5,47.5C 297.833,47.5 299.167,47.5 300.5,47.5 Z"
       id="path3" />
  </g>
  <g
     id="g4">
    <path
       style="opacity:1"
       fill="#f0f2f2"
       d="M 296.5,49.5 C 298.604,49.2011 300.604,49.5344 302.5,50.5C 300.736,52.2776 298.736,53.6109 296.5,54.5C 296.5,52.8333 296.5,51.1667 296.5,49.5 Z"
       id="path4" />
  </g>
  <g
     id="g5">
    <path
       style="opacity:1"
       fill="#e2dee7"
       d="M 296.5,54.5 C 296.189,55.4778 295.522,56.1445 294.5,56.5C 293.571,55.3112 293.238,53.9778 293.5,52.5C 291.833,52.5 290.167,52.5 288.5,52.5C 288.596,57.1103 289.596,57.4436 291.5,53.5C 292.429,54.6888 292.762,56.0222 292.5,57.5C 289.482,57.6646 286.482,57.498 283.5,57C 281.416,56.3028 279.749,55.1361 278.5,53.5C 279.434,52.4324 279.768,51.099 279.5,49.5C 281.5,49.5 283.5,49.5 285.5,49.5C 285.337,51.8568 285.503,54.1902 286,56.5C 286.499,51.8452 286.666,47.1785 286.5,42.5C 289.5,42.5 292.5,42.5 295.5,42.5C 295.183,46.7016 295.517,50.7016 296.5,54.5 Z"
       id="path5" />
  </g>
  <g
     id="g6">
    <path
       style="opacity:1"
       fill="#947298"
       d="M 289.5,44.5 C 290.5,44.5 291.5,44.5 292.5,44.5C 292.498,48.5411 291.165,49.2077 288.5,46.5C 288.863,45.8165 289.196,45.1499 289.5,44.5 Z"
       id="path6" />
  </g>
  <g
     id="g7">
    <path
       style="opacity:1"
       fill="#e1dfe6"
       d="M 268.5,46.5 C 267.624,46.3691 266.957,46.7025 266.5,47.5C 268.862,48.8796 271.195,50.2129 273.5,51.5C 279.306,58.3926 286.639,60.7259 295.5,58.5C 295.263,59.791 295.596,60.791 296.5,61.5C 298.607,62.4682 300.941,62.8016 303.5,62.5C 296.697,63.9191 289.697,64.4191 282.5,64C 279.478,62.489 276.478,60.989 273.5,59.5C 269.972,55.3001 265.639,52.3001 260.5,50.5C 263.833,50.5 265.5,48.8333 265.5,45.5C 266.791,45.2627 267.791,45.596 268.5,46.5 Z"
       id="path7" />
  </g>
  <g
     id="g8">
    <path
       style="opacity:1"
       fill="#ba9fb6"
       d="M 246.5,50.5 C 251.167,50.5 255.833,50.5 260.5,50.5C 265.639,52.3001 269.972,55.3001 273.5,59.5C 271.201,58.2222 268.868,56.8889 266.5,55.5C 265.833,57.5 265.167,59.5 264.5,61.5C 263.548,59.9547 263.215,58.288 263.5,56.5C 262.5,56.5 261.5,56.5 260.5,56.5C 260.5,58.5 260.5,60.5 260.5,62.5C 267.134,62.6768 267.134,63.1768 260.5,64C 261.044,64.7172 261.711,65.2172 262.5,65.5C 262.167,66.1667 261.833,66.8333 261.5,67.5C 259.738,70.1417 259.405,69.975 260.5,67C 258.874,67.1953 257.207,67.1953 255.5,67C 254.422,66.3261 253.755,65.3261 253.5,64C 253.921,61.8154 254.421,59.6487 255,57.5C 257.631,55.8756 260.464,54.709 263.5,54C 257.864,52.127 252.197,50.9603 246.5,50.5 Z"
       id="path8" />
  </g>
  <g
     id="g9">
    <path
       style="opacity:1"
       fill="#959bb3"
       d="M 300.5,47.5 C 301.5,47.5 302.5,47.5 303.5,47.5C 303.884,49.9294 304.551,52.2627 305.5,54.5C 304.07,54.5792 302.736,54.2458 301.5,53.5C 297.369,54.6305 295.702,57.2971 296.5,61.5C 295.596,60.791 295.263,59.791 295.5,58.5C 286.639,60.7259 279.306,58.3926 273.5,51.5C 275.167,52.1667 276.833,52.8333 278.5,53.5C 279.749,55.1361 281.416,56.3028 283.5,57C 286.482,57.498 289.482,57.6646 292.5,57.5C 292.762,56.0222 292.429,54.6888 291.5,53.5C 289.596,57.4436 288.596,57.1103 288.5,52.5C 290.167,52.5 291.833,52.5 293.5,52.5C 293.238,53.9778 293.571,55.3112 294.5,56.5C 295.522,56.1445 296.189,55.4778 296.5,54.5C 298.736,53.6109 300.736,52.2776 302.5,50.5C 300.604,49.5344 298.604,49.2011 296.5,49.5C 297.833,48.8333 299.167,48.1667 300.5,47.5 Z"
       id="path9" />
  </g>
  <g
     id="g10">
    <path
       style="opacity:1"
       fill="#dad7e1"
       d="M 273.5,59.5 C 273.937,61.0744 274.937,62.2411 276.5,63C 271.695,63.2172 267.028,64.0506 262.5,65.5C 261.711,65.2172 261.044,64.7172 260.5,64C 267.134,63.1768 267.134,62.6768 260.5,62.5C 260.5,60.5 260.5,58.5 260.5,56.5C 261.5,56.5 262.5,56.5 263.5,56.5C 263.215,58.288 263.548,59.9547 264.5,61.5C 265.167,59.5 265.833,57.5 266.5,55.5C 268.868,56.8889 271.201,58.2222 273.5,59.5 Z"
       id="path10" />
  </g>
  <g
     id="g11">
    <path
       style="opacity:1"
       fill="#f0f3f5"
       d="M 316.5,77.5 C 315.271,79.741 313.605,81.741 311.5,83.5C 313.045,84.4519 314.712,84.7852 316.5,84.5C 316.48,86.143 317.147,87.4763 318.5,88.5C 316.667,89.9684 316.334,91.6351 317.5,93.5C 319.818,93.0325 321.985,93.0325 324,93.5C 324.494,95.1341 324.66,96.8008 324.5,98.5C 322.5,98.5 320.5,98.5 318.5,98.5C 316.912,97.3587 315.579,95.8587 314.5,94C 313.552,93.5172 312.552,93.3505 311.5,93.5C 311.263,92.209 311.596,91.209 312.5,90.5C 313.575,91.5624 314.575,91.5624 315.5,90.5C 313.999,89.2485 312.332,88.2485 310.5,87.5C 309.516,84.5719 309.183,81.5719 309.5,78.5C 305.736,78.5785 302.736,77.0785 300.5,74C 301.448,73.5172 302.448,73.3505 303.5,73.5C 303.5,72.1667 303.5,70.8333 303.5,69.5C 300.243,69.639 297.076,70.3056 294,71.5C 286.903,68.7547 282.403,71.0881 280.5,78.5C 279.592,75.7025 280.259,73.2025 282.5,71C 286.944,69.8894 290.944,67.8894 294.5,65C 301.234,64.5157 307.901,65.0157 314.5,66.5C 316.759,66.4677 318.925,66.1344 321,65.5C 321.483,66.448 321.649,67.448 321.5,68.5C 320.448,68.3505 319.448,68.5172 318.5,69C 319.711,69.8928 319.711,70.7261 318.5,71.5C 311.107,70.1298 310.607,71.4632 317,75.5C 317.692,76.4368 317.525,77.1034 316.5,77.5 Z"
       id="path11" />
  </g>
  <g
     id="g12">
    <path
       style="opacity:1"
       fill="#f4f4f6"
       d="M 238.5,50.5 C 238.5,52.1667 238.5,53.8333 238.5,55.5C 238.5,58.1667 238.5,60.8333 238.5,63.5C 238.334,67.8461 238.501,72.1794 239,76.5C 238.931,71.9205 240.431,70.9205 243.5,73.5C 244.493,68.8804 244.827,64.2137 244.5,59.5C 244.56,58.9569 244.893,58.6236 245.5,58.5C 246.429,59.6888 246.762,61.0222 246.5,62.5C 246.132,67.5731 248.466,70.4064 253.5,71C 250.258,71.2833 249.924,72.1166 252.5,73.5C 254.283,72.6518 254.783,71.3185 254,69.5C 249.372,67.7052 247.539,64.3719 248.5,59.5C 249.08,57.2512 250.413,55.5846 252.5,54.5C 253.043,54.44 253.376,54.1067 253.5,53.5C 250.914,52.52 248.247,52.1866 245.5,52.5C 245.328,51.5084 245.662,50.8417 246.5,50.5C 252.197,50.9603 257.864,52.127 263.5,54C 260.464,54.709 257.631,55.8756 255,57.5C 254.421,59.6487 253.921,61.8154 253.5,64C 253.755,65.3261 254.422,66.3261 255.5,67C 257.207,67.1953 258.874,67.1953 260.5,67C 259.405,69.975 259.738,70.1417 261.5,67.5C 270.42,63.7297 279.42,63.563 288.5,67C 285.027,67.3194 282.194,68.8194 280,71.5C 277.982,76.7318 276.315,82.0651 275,87.5C 273.644,88.3802 272.144,88.7135 270.5,88.5C 270.5,87.5 270.5,86.5 270.5,85.5C 274.625,85.2774 275.291,83.7774 272.5,81C 276.779,77.6068 277.445,73.6068 274.5,69C 265.441,65.6792 261.774,68.6792 263.5,78C 264.272,79.221 265.272,80.221 266.5,81C 263.709,83.7774 264.375,85.2774 268.5,85.5C 268.5,86.8333 268.5,88.1667 268.5,89.5C 267.167,89.5 265.833,89.5 264.5,89.5C 264.369,85.8088 262.369,83.8088 258.5,83.5C 261.044,81.6082 261.044,79.7748 258.5,78C 256.536,77.376 254.869,77.876 253.5,79.5C 253.142,74.9518 250.976,73.6185 247,75.5C 246.517,76.448 246.351,77.448 246.5,78.5C 243.771,77.4696 241.104,77.4696 238.5,78.5C 237.184,69.0684 237.184,59.7351 238.5,50.5 Z"
       id="path12" />
  </g>
  <g
     id="g13">
    <path
       style="opacity:1"
       fill="#9d90a9"
       d="M 248.5,59.5 C 247.539,64.3719 249.372,67.7052 254,69.5C 254.783,71.3185 254.283,72.6518 252.5,73.5C 249.924,72.1166 250.258,71.2833 253.5,71C 248.466,70.4064 246.132,67.5731 246.5,62.5C 247.167,61.5 247.833,60.5 248.5,59.5 Z"
       id="path13" />
  </g>
  <g
     id="g14">
    <path
       style="opacity:1"
       fill="#ae95ad"
       d="M 244.5,59.5 C 244.827,64.2137 244.493,68.8804 243.5,73.5C 240.431,70.9205 238.931,71.9205 239,76.5C 238.501,72.1794 238.334,67.8461 238.5,63.5C 241.766,63.4326 243.266,65.0992 243,68.5C 243.497,65.854 243.664,63.1873 243.5,60.5C 243.5,59.8333 243.833,59.5 244.5,59.5 Z"
       id="path14" />
  </g>
  <g
     id="g15">
    <path
       style="opacity:1"
       fill="#c284a7"
       d="M 238.5,55.5 C 239.396,56.5063 240.062,56.5063 240.5,55.5C 241.167,55.8333 241.833,56.1667 242.5,56.5C 242.232,58.099 242.566,59.4324 243.5,60.5C 243.664,63.1873 243.497,65.854 243,68.5C 243.266,65.0992 241.766,63.4326 238.5,63.5C 238.5,60.8333 238.5,58.1667 238.5,55.5 Z"
       id="path15" />
  </g>
  <g
     id="g16">
    <path
       style="opacity:1"
       fill="#c86595"
       d="M 238.5,50.5 C 240.167,50.5 241.833,50.5 243.5,50.5C 243.5,51.5 243.5,52.5 243.5,53.5C 245.143,53.4802 246.476,54.1468 247.5,55.5C 249.046,53.516 250.713,53.1826 252.5,54.5C 250.413,55.5846 249.08,57.2512 248.5,59.5C 247.833,60.5 247.167,61.5 246.5,62.5C 246.762,61.0222 246.429,59.6888 245.5,58.5C 244.893,58.6236 244.56,58.9569 244.5,59.5C 243.833,59.5 243.5,59.8333 243.5,60.5C 242.566,59.4324 242.232,58.099 242.5,56.5C 242.655,53.1469 241.988,52.8136 240.5,55.5C 240.062,56.5063 239.396,56.5063 238.5,55.5C 238.5,53.8333 238.5,52.1667 238.5,50.5 Z"
       id="path16" />
  </g>
  <g
     id="g17">
    <path
       style="opacity:1"
       fill="#f0e1ea"
       d="M 242.5,56.5 C 241.833,56.1667 241.167,55.8333 240.5,55.5C 241.988,52.8136 242.655,53.1469 242.5,56.5 Z"
       id="path17" />
  </g>
  <g
     id="g18">
    <path
       style="opacity:1"
       fill="#ddabc5"
       d="M 243.5,50.5 C 244.167,51.1667 244.833,51.8333 245.5,52.5C 248.247,52.1866 250.914,52.52 253.5,53.5C 253.376,54.1067 253.043,54.44 252.5,54.5C 250.713,53.1826 249.046,53.516 247.5,55.5C 246.476,54.1468 245.143,53.4802 243.5,53.5C 243.5,52.5 243.5,51.5 243.5,50.5 Z"
       id="path18" />
  </g>
  <g
     id="g19">
    <path
       style="opacity:1"
       fill="#8298b0"
       d="M 270.5,85.5 C 269.833,77.5 269.167,77.5 268.5,85.5C 264.375,85.2774 263.709,83.7774 266.5,81C 265.272,80.221 264.272,79.221 263.5,78C 261.774,68.6792 265.441,65.6792 274.5,69C 277.445,73.6068 276.779,77.6068 272.5,81C 275.291,83.7774 274.625,85.2774 270.5,85.5 Z"
       id="path19" />
  </g>
  <g
     id="g20">
    <path
       style="opacity:1"
       fill="#eaeff3"
       d="M 267.5,71.5 C 270.757,71.174 272.257,72.5073 272,75.5C 267.415,77.4126 265.915,76.0793 267.5,71.5 Z"
       id="path20" />
  </g>
  <g
     id="g21">
    <path
       style="opacity:1"
       fill="#75a9be"
       d="M 316.5,77.5 C 316.5,78.8333 316.5,80.1667 316.5,81.5C 315.957,81.56 315.624,81.8933 315.5,82.5C 317.844,83.3372 319.844,84.6706 321.5,86.5C 318.412,89.9896 318.912,90.9896 323,89.5C 324.5,90.5 326,91.5 327.5,92.5C 326.41,93.6086 326.41,94.6086 327.5,95.5C 332,92.9104 332.334,93.2437 328.5,96.5C 327.571,97.6888 327.238,99.0222 327.5,100.5C 321.556,100.121 315.556,99.9546 309.5,100C 306.011,97.2812 302.178,96.7812 298,98.5C 295.454,98.1414 293.287,97.1414 291.5,95.5C 291.5,94.8333 291.5,94.1667 291.5,93.5C 293.322,95.1598 295.489,96.1598 298,96.5C 301.193,95.2231 304.36,95.2231 307.5,96.5C 310.878,99.2288 314.545,99.8954 318.5,98.5C 320.5,98.5 322.5,98.5 324.5,98.5C 324.66,96.8008 324.494,95.1341 324,93.5C 321.985,93.0325 319.818,93.0325 317.5,93.5C 316.334,91.6351 316.667,89.9684 318.5,88.5C 317.147,87.4763 316.48,86.143 316.5,84.5C 314.712,84.7852 313.045,84.4519 311.5,83.5C 313.605,81.741 315.271,79.741 316.5,77.5 Z"
       id="path21" />
  </g>
  <g
     id="g22">
    <path
       style="opacity:1"
       fill="#6ba2b4"
       d="M 325.5,70.5 C 327.62,71.85 327.453,73.5167 325,75.5C 323.273,81.5944 325.106,86.2611 330.5,89.5C 330.167,89.8333 329.833,90.1667 329.5,90.5C 321.932,85.0905 320.598,78.4239 325.5,70.5 Z"
       id="path22" />
  </g>
  <g
     id="g23">
    <path
       style="opacity:1"
       fill="#f5f7f9"
       d="M 309.5,88.5 C 311.31,91.9538 310.643,94.6204 307.5,96.5C 304.36,95.2231 301.193,95.2231 298,96.5C 295.489,96.1598 293.322,95.1598 291.5,93.5C 290.235,92.5207 288.901,91.5207 287.5,90.5C 288.09,89.2011 289.09,88.3678 290.5,88C 296.884,87.2489 303.217,87.4156 309.5,88.5 Z"
       id="path23" />
  </g>
  <g
     id="g24">
    <path
       style="opacity:1"
       fill="#678ba8"
       d="M 246.5,86.5 C 251.328,86.3852 252.661,88.5519 250.5,93C 245.57,93.427 244.237,91.2604 246.5,86.5 Z"
       id="path24" />
  </g>
  <g
     id="g25">
    <path
       style="opacity:1"
       fill="#a5c4d3"
       d="M 309.5,88.5 C 310.71,88.9321 311.71,89.5987 312.5,90.5C 311.596,91.209 311.263,92.209 311.5,93.5C 312.552,93.3505 313.552,93.5172 314.5,94C 315.579,95.8587 316.912,97.3587 318.5,98.5C 314.545,99.8954 310.878,99.2288 307.5,96.5C 310.643,94.6204 311.31,91.9538 309.5,88.5 Z"
       id="path25" />
  </g>
  <g
     id="g26">
    <path
       style="opacity:1"
       fill="#6b92ae"
       d="M 316.5,81.5 C 316.5,80.1667 316.5,78.8333 316.5,77.5C 317.525,77.1034 317.692,76.4368 317,75.5C 310.607,71.4632 311.107,70.1298 318.5,71.5C 319.711,70.7261 319.711,69.8928 318.5,69C 319.448,68.5172 320.448,68.3505 321.5,68.5C 321.649,67.448 321.483,66.448 321,65.5C 318.925,66.1344 316.759,66.4677 314.5,66.5C 307.901,65.0157 301.234,64.5157 294.5,65C 290.944,67.8894 286.944,69.8894 282.5,71C 280.259,73.2025 279.592,75.7025 280.5,78.5C 282.403,71.0881 286.903,68.7547 294,71.5C 297.076,70.3056 300.243,69.639 303.5,69.5C 303.5,70.8333 303.5,72.1667 303.5,73.5C 302.448,73.3505 301.448,73.5172 300.5,74C 302.736,77.0785 305.736,78.5785 309.5,78.5C 309.183,81.5719 309.516,84.5719 310.5,87.5C 312.332,88.2485 313.999,89.2485 315.5,90.5C 314.575,91.5624 313.575,91.5624 312.5,90.5C 311.71,89.5987 310.71,88.9321 309.5,88.5C 303.217,87.4156 296.884,87.2489 290.5,88C 289.09,88.3678 288.09,89.2011 287.5,90.5C 288.901,91.5207 290.235,92.5207 291.5,93.5C 291.5,94.1667 291.5,94.8333 291.5,95.5C 289.167,95.5 286.833,95.5 284.5,95.5C 280.943,96.8001 277.276,98.1334 273.5,99.5C 272.833,100.833 272.167,102.167 271.5,103.5C 267.7,99.1035 263.033,96.6035 257.5,96C 260.661,97.4131 263.661,99.0797 266.5,101C 268.329,102.113 269.163,103.613 269,105.5C 260.167,97.2496 250,94.9163 238.5,98.5C 238.5,97.5 238.5,96.5 238.5,95.5C 244.176,95.6661 249.843,95.4994 255.5,95C 257.887,94.0239 259.054,92.1906 259,89.5C 260.205,88.9288 261.372,88.2621 262.5,87.5C 260.659,86.7696 258.825,86.1029 257,85.5C 257,83.5 257,81.5 257,79.5C 255.211,81.229 253.044,81.8957 250.5,81.5C 250.785,79.712 250.452,78.0453 249.5,76.5C 248.246,78.5378 246.579,80.2044 244.5,81.5C 241.326,78.5271 240.326,79.0271 241.5,83C 241.387,84.2798 240.72,85.1131 239.5,85.5C 239.642,83.3063 239.309,80.9729 238.5,78.5C 241.104,77.4696 243.771,77.4696 246.5,78.5C 246.351,77.448 246.517,76.448 247,75.5C 250.976,73.6185 253.142,74.9518 253.5,79.5C 254.869,77.876 256.536,77.376 258.5,78C 261.044,79.7748 261.044,81.6082 258.5,83.5C 262.369,83.8088 264.369,85.8088 264.5,89.5C 265.833,89.5 267.167,89.5 268.5,89.5C 268.5,88.1667 268.5,86.8333 268.5,85.5C 269.167,77.5 269.833,77.5 270.5,85.5C 270.5,86.5 270.5,87.5 270.5,88.5C 272.144,88.7135 273.644,88.3802 275,87.5C 276.315,82.0651 277.982,76.7318 280,71.5C 282.194,68.8194 285.027,67.3194 288.5,67C 279.42,63.563 270.42,63.7297 261.5,67.5C 261.833,66.8333 262.167,66.1667 262.5,65.5C 267.028,64.0506 271.695,63.2172 276.5,63C 274.937,62.2411 273.937,61.0744 273.5,59.5C 276.478,60.989 279.478,62.489 282.5,64C 289.697,64.4191 296.697,63.9191 303.5,62.5C 304.645,60.2883 305.645,57.955 306.5,55.5C 309.084,56.3928 311.751,56.7261 314.5,56.5C 315.159,59.4552 315.492,62.4552 315.5,65.5C 317.677,65.4139 319.677,64.7472 321.5,63.5C 322.086,63.7093 322.586,64.0426 323,64.5C 323.446,67.6616 322.946,70.6616 321.5,73.5C 315.91,71.6128 315.243,72.6128 319.5,76.5C 318.167,77.5 318.167,78.5 319.5,79.5C 318.643,80.4252 317.643,81.0919 316.5,81.5 Z"
       id="path26" />
  </g>
  <g
     id="g27">
    <path
       style="opacity:1"
       fill="#dae4eb"
       d="M 284.5,95.5 C 279.44,95.4083 274.773,96.7417 270.5,99.5C 270.167,99.1667 269.833,98.8333 269.5,98.5C 274.572,95.4194 280.072,93.4194 286,92.5C 287.059,92.6301 287.892,93.1301 288.5,94C 286.942,94.21 285.609,94.71 284.5,95.5 Z"
       id="path27" />
  </g>
  <g
     id="g28">
    <path
       style="opacity:1"
       fill="#d1dce2"
       d="M 277.5,90.5 C 279.288,90.2148 280.955,90.5481 282.5,91.5C 277.193,92.7139 272.193,94.7139 267.5,97.5C 267.167,97.1667 266.833,96.8333 266.5,96.5C 270.034,94.2336 273.7,92.2336 277.5,90.5 Z"
       id="path28" />
  </g>
  <g
     id="g29">
    <path
       style="opacity:1"
       fill="#e4e9eb"
       d="M 267.5,90.5 C 269.527,90.3379 271.527,90.5045 273.5,91C 270.121,92.1068 266.954,93.6068 264,95.5C 262.775,95.1377 261.609,94.6377 260.5,94C 262.713,92.3838 265.047,91.2172 267.5,90.5 Z"
       id="path29" />
  </g>
  <g
     id="g30">
    <path
       style="opacity:1"
       fill="#f0f4f6"
       d="M 278.5,80.5 C 279.833,80.5 281.167,80.5 282.5,80.5C 282.873,83.5739 283.539,86.5739 284.5,89.5C 281.784,89.3215 279.117,88.8215 276.5,88C 278.113,85.7724 278.78,83.2724 278.5,80.5 Z"
       id="path30" />
  </g>
  <g
     id="g31">
    <path
       style="opacity:1"
       fill="#c8d2dc"
       d="M 289.5,79.5 C 290.5,79.5 291.5,79.5 292.5,79.5C 292.773,81.451 292.107,82.951 290.5,84C 293.051,85.5158 292.718,86.3491 289.5,86.5C 289.5,84.1667 289.5,81.8333 289.5,79.5 Z"
       id="path31" />
  </g>
  <g
     id="g32">
    <path
       style="opacity:1"
       fill="#b8c9d4"
       d="M 304.5,79.5 C 305.833,79.5 307.167,79.5 308.5,79.5C 308.5,81.8333 308.5,84.1667 308.5,86.5C 307.178,86.67 306.011,86.3366 305,85.5C 304.505,83.5273 304.338,81.5273 304.5,79.5 Z"
       id="path32" />
  </g>
  <g
     id="g33">
    <path
       style="opacity:1"
       fill="#eff2f4"
       d="M 297.5,75.5 C 303.259,76.6134 304.926,79.9467 302.5,85.5C 301.841,82.1763 299.841,80.8429 296.5,81.5C 295.866,86.766 295.199,86.766 294.5,81.5C 294.617,78.9503 295.617,76.9503 297.5,75.5 Z"
       id="path33" />
  </g>
  <g
     id="g34">
    <path
       style="opacity:1"
       fill="#f2f4f5"
       d="M 287.5,71.5 C 290.817,73.1719 294.151,73.8386 297.5,73.5C 295.194,76.4851 292.194,78.1518 288.5,78.5C 288.817,81.5719 288.484,84.5719 287.5,87.5C 286.201,86.91 285.368,85.91 285,84.5C 284.608,81.8121 284.108,79.1454 283.5,76.5C 284.127,74.2127 285.46,72.546 287.5,71.5 Z"
       id="path34" />
  </g>
  <g
     id="g35">
    <path
       style="opacity:1"
       fill="#ecf0f1"
       d="M 307.5,58.5 C 313.167,57.5024 315.501,59.8357 314.5,65.5C 311.518,65.0371 308.518,64.7038 305.5,64.5C 305.253,62.1417 305.919,60.1417 307.5,58.5 Z"
       id="path35" />
  </g>
  <g
     id="g36">
    <path
       style="opacity:1"
       fill="#eef3f5"
       d="M 284.5,95.5 C 286.833,95.5 289.167,95.5 291.5,95.5C 293.287,97.1414 295.454,98.1414 298,98.5C 302.178,96.7812 306.011,97.2812 309.5,100C 315.556,99.9546 321.556,100.121 327.5,100.5C 327.443,101.609 327.11,102.609 326.5,103.5C 322.151,100.563 318.151,100.896 314.5,104.5C 316.337,105.838 318.003,107.338 319.5,109C 318.907,110.882 317.573,111.882 315.5,112C 318.166,113.061 320.833,113.894 323.5,114.5C 321.051,115.02 318.718,115.353 316.5,115.5C 313.619,113.254 312.619,110.421 313.5,107C 312.993,104.659 311.826,104.159 310,105.5C 307.427,102.995 305.26,103.495 303.5,107C 302.207,107.49 300.873,107.657 299.5,107.5C 299.703,109.39 299.037,110.89 297.5,112C 298.833,112.667 300.167,112.667 301.5,112C 302.986,108.602 305.319,107.435 308.5,108.5C 312.025,111.866 315.025,115.699 317.5,120C 317.266,121.732 316.266,122.566 314.5,122.5C 310.114,120.623 306.281,121.29 303,124.5C 302.26,125.749 302.427,126.749 303.5,127.5C 302.829,128.847 302.829,130.014 303.5,131C 299.167,131.333 294.833,131.667 290.5,132C 291.451,132.718 291.617,133.551 291,134.5C 290.005,133.934 289.172,133.267 288.5,132.5C 287.866,131.053 286.699,130.387 285,130.5C 282.474,131.064 279.974,131.731 277.5,132.5C 274.121,131.139 270.788,129.806 267.5,128.5C 264.77,128.389 262.77,129.389 261.5,131.5C 259.801,131.527 258.467,132.194 257.5,133.5C 257.565,133.062 257.399,132.728 257,132.5C 255.257,134.975 254.257,134.975 254,132.5C 255.826,130.926 257.993,130.093 260.5,130C 257.187,128.032 253.854,126.032 250.5,124C 246.622,122.53 242.622,121.697 238.5,121.5C 237.316,120.312 237.316,119.145 238.5,118C 241.039,117.204 243.372,117.371 245.5,118.5C 243.473,118.338 241.473,118.505 239.5,119C 243.167,120 246.833,121 250.5,122C 255.501,126.779 261.334,128.279 268,126.5C 270.149,126.658 271.983,127.492 273.5,129C 282.56,128.521 291.56,128.855 300.5,130C 297.11,129.754 293.777,129.254 290.5,128.5C 289.23,124.484 289.23,120.484 290.5,116.5C 289.975,115.808 289.308,115.308 288.5,115C 290.046,113.56 290.879,111.727 291,109.5C 291.583,111.002 292.416,112.335 293.5,113.5C 295.85,112.226 295.683,110.893 293,109.5C 292.51,108.207 292.343,106.873 292.5,105.5C 295.588,105.803 297.254,104.47 297.5,101.5C 295.61,101.297 294.11,101.963 293,103.5C 293.019,101.893 293.185,100.226 293.5,98.5C 291.857,98.4802 290.524,99.1468 289.5,100.5C 288.264,99.7542 286.93,99.4208 285.5,99.5C 285.33,100.822 285.663,101.989 286.5,103C 285.207,103.49 283.873,103.657 282.5,103.5C 282.5,104.5 282.5,105.5 282.5,106.5C 284.199,106.34 285.866,106.506 287.5,107C 284.119,107.182 283.119,108.682 284.5,111.5C 285.609,110.41 286.609,110.41 287.5,111.5C 284.727,116.713 282.227,122.046 280,127.5C 276.939,128.943 274.439,128.276 272.5,125.5C 273.583,125.539 274.583,125.873 275.5,126.5C 279.399,123.687 280.399,120.02 278.5,115.5C 279.384,111.527 280.051,107.527 280.5,103.5C 272.749,105.873 265.082,108.54 257.5,111.5C 256.252,109.541 254.585,108.041 252.5,107C 255.656,103.28 254.99,101.947 250.5,103C 251.337,104.011 251.67,105.178 251.5,106.5C 247.215,105.705 242.881,105.372 238.5,105.5C 238.5,103.167 238.5,100.833 238.5,98.5C 250,94.9163 260.167,97.2496 269,105.5C 269.163,103.613 268.329,102.113 266.5,101C 263.661,99.0797 260.661,97.4131 257.5,96C 263.033,96.6035 267.7,99.1035 271.5,103.5C 272.167,102.167 272.833,100.833 273.5,99.5C 277.276,98.1334 280.943,96.8001 284.5,95.5 Z"
       id="path36" />
  </g>
  <g
     id="g37">
    <path
       style="opacity:1"
       fill="#6994b2"
       d="M 241.5,98.5 C 251.073,97.1399 259.407,99.6399 266.5,106C 261.92,103.462 256.92,101.462 251.5,100C 247.47,99.6743 243.47,99.6743 239.5,100C 240.416,99.7216 241.082,99.2216 241.5,98.5 Z"
       id="path37" />
  </g>
  <g
     id="g38">
    <path
       style="opacity:1"
       fill="#59a3ba"
       d="M 293.5,106.5 C 294.833,106.5 296.167,106.5 297.5,106.5C 297.719,107.675 297.386,108.675 296.5,109.5C 294.787,109.121 293.787,108.121 293.5,106.5 Z"
       id="path38" />
  </g>
  <g
     id="g39">
    <path
       style="opacity:1"
       fill="#72a6bc"
       d="M 272.5,125.5 C 269.898,123.858 267.231,122.192 264.5,120.5C 263.893,120.624 263.56,120.957 263.5,121.5C 262.833,120.833 262.167,120.167 261.5,119.5C 258.193,118.398 255.193,116.565 252.5,114C 248,112.208 243.333,111.375 238.5,111.5C 238.5,109.5 238.5,107.5 238.5,105.5C 242.881,105.372 247.215,105.705 251.5,106.5C 251.67,105.178 251.337,104.011 250.5,103C 254.99,101.947 255.656,103.28 252.5,107C 254.585,108.041 256.252,109.541 257.5,111.5C 265.082,108.54 272.749,105.873 280.5,103.5C 280.051,107.527 279.384,111.527 278.5,115.5C 280.399,120.02 279.399,123.687 275.5,126.5C 274.583,125.873 273.583,125.539 272.5,125.5 Z"
       id="path39" />
  </g>
  <g
     id="g40">
    <path
       style="opacity:1"
       fill="#e6ebf0"
       d="M 240.5,106.5 C 245.822,106.501 250.488,108.168 254.5,111.5C 254,111.833 253.5,112.167 253,112.5C 248.619,110.78 244.119,109.446 239.5,108.5C 239.863,107.817 240.196,107.15 240.5,106.5 Z"
       id="path40" />
  </g>
  <g
     id="g41">
    <path
       style="opacity:1"
       fill="#66b7c5"
       d="M 326.5,103.5 C 327.729,106.135 327.729,108.801 326.5,111.5C 324.724,109.553 322.724,109.22 320.5,110.5C 321.824,111.935 323.49,112.935 325.5,113.5C 325.043,114.298 324.376,114.631 323.5,114.5C 320.833,113.894 318.166,113.061 315.5,112C 317.573,111.882 318.907,110.882 319.5,109C 318.003,107.338 316.337,105.838 314.5,104.5C 318.151,100.896 322.151,100.563 326.5,103.5 Z"
       id="path41" />
  </g>
  <g
     id="g42">
    <path
       style="opacity:1"
       fill="#eef4f5"
       d="M 318.5,102.5 C 323.817,102.045 326.317,104.378 326,109.5C 323.696,107.932 321.196,106.765 318.5,106C 317.316,104.855 317.316,103.688 318.5,102.5 Z"
       id="path42" />
  </g>
  <g
     id="g43">
    <path
       style="opacity:1"
       fill="#6ab7c5"
       d="M 316.5,115.5 C 320.269,118.136 320.269,120.969 316.5,124C 312.879,123.595 309.213,123.595 305.5,124C 304.177,124.816 303.511,125.983 303.5,127.5C 302.427,126.749 302.26,125.749 303,124.5C 306.281,121.29 310.114,120.623 314.5,122.5C 316.266,122.566 317.266,121.732 317.5,120C 315.025,115.699 312.025,111.866 308.5,108.5C 305.319,107.435 302.986,108.602 301.5,112C 300.167,112.667 298.833,112.667 297.5,112C 299.037,110.89 299.703,109.39 299.5,107.5C 300.873,107.657 302.207,107.49 303.5,107C 305.26,103.495 307.427,102.995 310,105.5C 311.826,104.159 312.993,104.659 313.5,107C 312.619,110.421 313.619,113.254 316.5,115.5 Z"
       id="path43" />
  </g>
  <g
     id="g44">
    <path
       style="opacity:1"
       fill="#cfdfe6"
       d="M 276.5,107.5 C 277.239,107.369 277.906,107.536 278.5,108C 277.289,109.113 277.289,110.28 278.5,111.5C 277.011,111.533 275.678,112.033 274.5,113C 277.167,114.333 277.167,115.667 274.5,117C 279.297,118.961 279.463,121.461 275,124.5C 271.945,123.389 269.112,121.889 266.5,120C 267.427,117.03 269.427,115.197 272.5,114.5C 271.277,113.386 269.944,113.219 268.5,114C 267.458,115.918 266.292,117.751 265,119.5C 264.1,118.23 262.934,117.23 261.5,116.5C 266.398,113.223 271.398,110.223 276.5,107.5 Z"
       id="path44" />
  </g>
  <g
     id="g45">
    <path
       style="opacity:1"
       fill="#78becc"
       d="M 295.5,114.5 C 299.316,114.408 302.316,115.908 304.5,119C 302.375,122.471 300.542,122.305 299,118.5C 298.502,121.482 298.335,124.482 298.5,127.5C 292.902,126.51 291.068,123.176 293,117.5C 294.045,116.627 294.878,115.627 295.5,114.5 Z"
       id="path45" />
  </g>
  <g
     id="g46">
    <path
       style="opacity:1"
       fill="#eef3f3"
       d="M 296.5,115.5 C 297.922,115.709 299.255,116.209 300.5,117C 298.101,117.731 295.935,118.898 294,120.5C 294.058,118.565 294.891,116.898 296.5,115.5 Z"
       id="path46" />
  </g>
  <g
     id="g47">
    <path
       style="opacity:1"
       fill="#7bb7c8"
       d="M 245.5,118.5 C 250.218,119.736 254.551,121.736 258.5,124.5C 260.767,123.638 261.767,121.971 261.5,119.5C 262.167,120.167 262.833,120.833 263.5,121.5C 262.766,122.708 262.433,124.041 262.5,125.5C 265.914,124.753 269.247,124.753 272.5,125.5C 274.439,128.276 276.939,128.943 280,127.5C 282.227,122.046 284.727,116.713 287.5,111.5C 286.609,110.41 285.609,110.41 284.5,111.5C 283.119,108.682 284.119,107.182 287.5,107C 285.866,106.506 284.199,106.34 282.5,106.5C 282.5,105.5 282.5,104.5 282.5,103.5C 283.873,103.657 285.207,103.49 286.5,103C 285.663,101.989 285.33,100.822 285.5,99.5C 286.93,99.4208 288.264,99.7542 289.5,100.5C 290.524,99.1468 291.857,98.4802 293.5,98.5C 293.185,100.226 293.019,101.893 293,103.5C 294.11,101.963 295.61,101.297 297.5,101.5C 297.254,104.47 295.588,105.803 292.5,105.5C 292.343,106.873 292.51,108.207 293,109.5C 295.683,110.893 295.85,112.226 293.5,113.5C 292.416,112.335 291.583,111.002 291,109.5C 290.879,111.727 290.046,113.56 288.5,115C 289.308,115.308 289.975,115.808 290.5,116.5C 289.23,120.484 289.23,124.484 290.5,128.5C 293.777,129.254 297.11,129.754 300.5,130C 291.56,128.855 282.56,128.521 273.5,129C 271.983,127.492 270.149,126.658 268,126.5C 261.334,128.279 255.501,126.779 250.5,122C 246.833,121 243.167,120 239.5,119C 241.473,118.505 243.473,118.338 245.5,118.5 Z"
       id="path47" />
  </g>
  <g
     id="g48">
    <path
       style="opacity:1"
       fill="#e2e9f1"
       d="M 286.5,122.5 C 288.972,123.749 289.139,125.415 287,127.5C 286.506,125.866 286.34,124.199 286.5,122.5 Z"
       id="path48" />
  </g>
  <g
     id="g49">
    <path
       style="opacity:1"
       fill="#ebf2f5"
       d="M 272.5,125.5 C 269.247,124.753 265.914,124.753 262.5,125.5C 262.433,124.041 262.766,122.708 263.5,121.5C 263.56,120.957 263.893,120.624 264.5,120.5C 267.231,122.192 269.898,123.858 272.5,125.5 Z"
       id="path49" />
  </g>
  <g
     id="g50">
    <path
       style="opacity:1"
       fill="#e0e9ee"
       d="M 238.5,123.5 C 244.518,123.45 249.851,125.283 254.5,129C 250.417,128.815 246.417,127.981 242.5,126.5C 241.5,126.833 240.5,127.167 239.5,127.5C 243.424,128.648 247.258,129.981 251,131.5C 251.688,132.332 251.521,132.998 250.5,133.5C 247.124,131.024 243.457,130.358 239.5,131.5C 244.976,132.602 249.976,134.769 254.5,138C 253.328,138.353 252.162,138.187 251,137.5C 249.989,138.056 249.156,138.722 248.5,139.5C 248.5,138.833 248.167,138.5 247.5,138.5C 245.097,137.869 242.764,136.869 240.5,135.5C 239.817,135.863 239.15,136.196 238.5,136.5C 238.5,132.167 238.5,127.833 238.5,123.5 Z"
       id="path50" />
  </g>
  <g
     id="g51">
    <path
       style="opacity:1"
       fill="#7bc0cc"
       d="M 288.5,132.5 C 284.812,132.55 281.145,132.884 277.5,133.5C 274.771,133.705 272.438,132.872 270.5,131C 267.408,130.264 264.408,130.431 261.5,131.5C 262.77,129.389 264.77,128.389 267.5,128.5C 270.788,129.806 274.121,131.139 277.5,132.5C 279.974,131.731 282.474,131.064 285,130.5C 286.699,130.387 287.866,131.053 288.5,132.5 Z"
       id="path51" />
  </g>
  <g
     id="g52">
    <path
       style="opacity:1"
       fill="#67afc3"
       d="M 238.5,121.5 C 242.622,121.697 246.622,122.53 250.5,124C 253.854,126.032 257.187,128.032 260.5,130C 257.993,130.093 255.826,130.926 254,132.5C 254.257,134.975 255.257,134.975 257,132.5C 257.399,132.728 257.565,133.062 257.5,133.5C 256.859,134.482 256.193,135.482 255.5,136.5C 257.288,138.576 258.954,140.743 260.5,143C 258.36,146.781 256.36,150.615 254.5,154.5C 252.7,155.308 251.033,154.808 249.5,153C 249.728,152.601 250.062,152.435 250.5,152.5C 251.688,153.684 252.855,153.684 254,152.5C 255.484,149.531 256.984,146.531 258.5,143.5C 257.011,141.16 254.844,139.826 252,139.5C 250.144,140.202 248.977,141.536 248.5,143.5C 247.646,142.368 247.646,141.035 248.5,139.5C 249.156,138.722 249.989,138.056 251,137.5C 252.162,138.187 253.328,138.353 254.5,138C 249.976,134.769 244.976,132.602 239.5,131.5C 243.457,130.358 247.124,131.024 250.5,133.5C 251.521,132.998 251.688,132.332 251,131.5C 247.258,129.981 243.424,128.648 239.5,127.5C 240.5,127.167 241.5,126.833 242.5,126.5C 246.417,127.981 250.417,128.815 254.5,129C 249.851,125.283 244.518,123.45 238.5,123.5C 238.5,122.833 238.5,122.167 238.5,121.5 Z"
       id="path52" />
  </g>
  <g
     id="g53">
    <path
       style="opacity:1"
       fill="#5daec1"
       d="M 247.5,138.5 C 247.631,139.239 247.464,139.906 247,140.5C 244.273,139.202 241.44,138.202 238.5,137.5C 238.5,137.167 238.5,136.833 238.5,136.5C 239.15,136.196 239.817,135.863 240.5,135.5C 242.764,136.869 245.097,137.869 247.5,138.5 Z"
       id="path53" />
  </g>
  <g
     id="g54">
    <path
       style="opacity:1"
       fill="#ddecf0"
       d="M 250.5,152.5 C 249.359,151.661 248.026,150.994 246.5,150.5C 245.252,148.403 245.752,146.736 248,145.5C 251.392,148.036 254.225,147.703 256.5,144.5C 255.126,143.289 253.626,142.289 252,141.5C 250.923,142.429 249.756,143.096 248.5,143.5C 248.977,141.536 250.144,140.202 252,139.5C 254.844,139.826 257.011,141.16 258.5,143.5C 256.984,146.531 255.484,149.531 254,152.5C 252.855,153.684 251.688,153.684 250.5,152.5 Z"
       id="path54" />
  </g>
  <g
     id="g55">
    <path
       style="opacity:1"
       fill="#60b9ca"
       d="M 247.5,148.5 C 249.666,147.371 251.666,147.871 253.5,150C 251.305,150.409 249.305,149.909 247.5,148.5 Z"
       id="path55" />
  </g>
  <g
     id="g56">
    <path
       style="opacity:1"
       fill="#96ccd7"
       d="M 238.5,137.5 C 241.44,138.202 244.273,139.202 247,140.5C 247.464,139.906 247.631,139.239 247.5,138.5C 248.167,138.5 248.5,138.833 248.5,139.5C 247.646,141.035 247.646,142.368 248.5,143.5C 249.756,143.096 250.923,142.429 252,141.5C 253.626,142.289 255.126,143.289 256.5,144.5C 254.225,147.703 251.392,148.036 248,145.5C 245.752,146.736 245.252,148.403 246.5,150.5C 248.026,150.994 249.359,151.661 250.5,152.5C 250.062,152.435 249.728,152.601 249.5,153C 251.033,154.808 252.7,155.308 254.5,154.5C 254.423,155.75 253.756,156.583 252.5,157C 254.283,158.067 254.783,159.567 254,161.5C 253.059,163.772 251.726,165.772 250,167.5C 247.757,166.029 245.257,165.029 242.5,164.5C 239.034,163.08 238.034,160.747 239.5,157.5C 242.587,160.96 246.421,162.96 251,163.5C 251.5,163 252,162.5 252.5,162C 248.699,157.932 244.032,155.766 238.5,155.5C 238.5,153.833 238.5,152.167 238.5,150.5C 242.102,150.322 242.102,149.322 238.5,147.5C 239.376,146.749 240.376,146.249 241.5,146C 239.745,145.28 238.911,144.113 239,142.5C 240.753,143.627 242.587,144.627 244.5,145.5C 245.308,145.192 245.975,144.692 246.5,144C 243.708,143.103 241.041,141.937 238.5,140.5C 237.209,139.473 237.209,138.473 238.5,137.5 Z"
       id="path56" />
  </g>
</svg>
